<svg xmlns="http://www.w3.org/2000/svg" viewBox="0 0 251.492 188.559"><g fill="#3887be"><path d="M117.668 96.667V65.578a572.809 572.809 0 0 0 4.636-.163c2.371-5.642 5.456-9.611 9.232-11.892-4.927.217-9.464.403-13.013.522-2.486.084-4.484.135-5.795.143a6.042 6.042 0 0 0-.789-.057H79.833c-.271 0-.536.024-.798.059h-5.922l-18.742.003a21.45 21.45 0 0 1-7.352 4.898 33.16 33.16 0 0 1 9.1 3.753c1.724.822 2.631 1.613 3.044 2.049.335.251.65.535.978.799l10.962-.002h3v19.943c3.831 9.496 6.208 21.32 7.082 35.436a8.44 8.44 0 0 1-2.112 6.153 8.446 8.446 0 0 1-4.97 2.756v48.182c0 5.471 4.437 9.908 9.911 9.908 5.469 0 9.906-4.437 9.906-9.908v-51.1h3.928v51.101c0 5.471 4.437 9.908 9.91 9.908 5.47 0 9.908-4.437 9.908-9.908V96.667zm-93.83-42.469h-1.742l.001 8.638a33.183 33.183 0 0 1 9.088-3.745 21.45 21.45 0 0 1-7.347-4.893zm52.471-22.987c0 10.812 8.765 19.577 19.577 19.577s19.577-8.765 19.577-19.577c0-10.812-8.765-19.577-19.577-19.577s-19.577 8.764-19.577 19.577zm31.083 5.539c-2.385 3.862-6.643 6.45-11.506 6.45s-9.122-2.588-11.506-6.45h23.012zm68.602-5.566c0-.446-.037-.883-.067-1.322l-7.454-1.659c-.016.082-.024.164-.042.247a7.75 7.75 0 0 1-15.13-3.368c.018-.082.046-.16.067-.241l-3.197-.712c-.016.082-.024.164-.042.247a7.75 7.75 0 0 1-9.249 5.881 7.7 7.7 0 0 1-3.786-2.084 19.652 19.652 0 0 0-.255 3.01c0 10.812 8.765 19.577 19.577 19.577 10.813.001 19.578-8.764 19.578-19.576zm-26.467 9.768c-3.763-.831-6.616-3.561-7.801-6.957l17.806 3.932c-2.505 2.581-6.243 3.856-10.005 3.025z"/><path d="M155.132 25.49a5.875 5.875 0 1 0 11.47 2.552 5.875 5.875 0 0 0-11.47-2.552zm-18.302-4.073a5.875 5.875 0 1 0 11.47 2.552 5.875 5.875 0 0 0-11.47-2.552z"/><path d="M146.968 14.041a19.61 19.61 0 0 0-2 1.286 7.749 7.749 0 0 1 5.278 6.387l4.082.908c1.7-2.681 4.947-4.149 8.224-3.42 3.277.729 5.595 3.436 5.997 6.585l7.068 1.573c-1.087-5.488-4.475-10.133-9.109-12.93-.638-1.344-1.152-2.772-1.238-4.013-.115-1.656.531-2.976 2.66-3.304 7.727-1.19-5.346-3.112-10.073 1.545a5.997 5.997 0 0 0-.489.546 12.082 12.082 0 0 1-.555-.587c-1.761-2.008-2.381-4.223.141-6.175 7.856-6.078-8.442.129-10.142 8.317-.225 1.068-.207 2.169.156 3.282zm-14.955 72.405c.277-2.115.598-4.12.954-5.959l.001-.003c.55-2.842 1.159-5.169 1.787-7.076V178.161c0 5.471 4.436 9.908 9.911 9.908 5.469 0 9.906-4.437 9.906-9.908V127.06h3.928v51.101c0 5.471 4.437 9.908 9.91 9.908 5.471 0 9.908-4.437 9.908-9.908v-48.279l-.059-.002a8.444 8.444 0 0 1-5.841-2.856 8.442 8.442 0 0 1-2.112-6.153c.943-15.225 3.631-27.789 8.012-37.633v-9.844c.568 1.72 1.132 3.826 1.653 6.403 2.425-4.651 5.294-8.583 8.586-11.816-1.539-4.095-3.405-7.243-5.604-9.467-2.663-2.694-5.9-4.162-9.384-4.297a6.086 6.086 0 0 0-.981-.085h-32.104c-.348 0-.686.034-1.017.09-6.71.253-11.785 5.061-15.16 14.314-1.036 2.84-1.917 6.084-2.63 9.762v.001a109.505 109.505 0 0 0-.991 6.11l-.018.009v.12c-.019.139-.039.274-.057.414a5.747 5.747 0 0 0 .057 1.832v9.615c2.736-.586 5.261-1.528 7.2-2.997 1.981-1.501 3.302-3.451 3.888-5.686v-.176c.117-.35.207-.714.257-1.094zM30.593 19.602a10.326 10.326 0 0 0-6.878-2.622c-5.73 0-10.375 4.645-10.375 10.375 0 3.586 1.819 6.746 4.585 8.61l.055-.012c1.136-7.347 6.001-13.472 12.613-16.351zm11.199 161.19a7.768 7.768 0 1 0 15.534 0v-29.919c-4.286.616-9.499 1.111-15.533 1.228v28.691zm-20.913 0a7.77 7.77 0 0 0 7.767 7.768 7.77 7.77 0 0 0 7.769-7.768V152.1c-6.036-.116-11.249-.611-15.535-1.228v29.92zm57.313-59.536c-1.979-31.96-11.493-47.13-21.152-54.204l-.013-.05s-.58-.698-2.323-1.508a30.152 30.152 0 0 0-15.602-4.377 30.16 30.16 0 0 0-15.606 4.379c-1.739.81-2.317 1.506-2.317 1.506l-.012.049C11.506 74.125 1.991 89.295.011 121.256a5.498 5.498 0 0 0 5.149 5.829 5.466 5.466 0 0 0 4.591-2.01c-.98 7.367-1.609 14.285-1.609 19.918 0 0 11.525 4.136 30.96 4.136s30.96-4.136 30.96-4.136c0-5.638-.629-12.563-1.611-19.938 1.014 1.244 2.543 2.041 4.248 2.041a5.499 5.499 0 0 0 5.493-5.84z"/><path d="M32.032 27.575c3.277-.729 6.524.739 8.224 3.42l4.082-.908a7.741 7.741 0 0 1 5.703-6.504 18.999 18.999 0 0 0-10.938-3.455c-9.244 0-16.952 6.567-18.718 15.29l5.65-1.258c.402-3.149 2.719-5.856 5.997-6.585zm26.17 11.652c0-1.076-.111-2.124-.282-3.152a7.706 7.706 0 0 1-4.219 2.556 7.75 7.75 0 0 1-9.249-5.881c-.019-.082-.027-.164-.042-.247l-3.197.712c.021.081.048.159.067.241a7.75 7.75 0 0 1-15.13 3.368c-.018-.082-.026-.164-.042-.247l-6.04 1.344c-.029.434-.066.865-.066 1.306 0 10.549 8.551 19.1 19.1 19.1s19.1-8.551 19.1-19.1zm-6.721 3.266c-1.185 3.396-4.038 6.126-7.801 6.957-3.763.831-7.5-.444-10.005-3.025l17.806-3.932z"/><path d="M50.741 25.332a5.875 5.875 0 1 0 2.553 11.47 5.875 5.875 0 0 0-2.553-11.47zm-18.302 4.073a5.875 5.875 0 1 0 2.553 11.47 5.875 5.875 0 0 0-2.553-11.47zm161.728 151.188a7.768 7.768 0 1 0 15.534 0v-28.692c-6.035-.117-11.248-.611-15.533-1.228v29.92zm20.911 0a7.77 7.77 0 0 0 7.769 7.768 7.77 7.77 0 0 0 7.767-7.768v-29.919c-4.286.617-9.5 1.111-15.536 1.228v28.691zm25.114-102.806c-2.52-.154-5.997-1.187-9.403-4.895-2.031-2.211-2.98-5.019-3.448-7.972a30.17 30.17 0 0 0-14.951-4.002c-3.868 0-9.649.778-15.602 4.377-1.743.811-2.323 1.508-2.323 1.508l-.013.05c-9.66 7.075-19.174 22.244-21.153 54.204a5.498 5.498 0 0 0 5.494 5.84c1.704 0 3.233-.797 4.248-2.041-.982 7.375-1.612 14.3-1.612 19.938 0 0 11.525 4.136 30.96 4.136s30.96-4.136 30.96-4.136c0-5.633-.628-12.551-1.609-19.918a5.47 5.47 0 0 0 4.591 2.01 5.498 5.498 0 0 0 5.149-5.829c-1.278-20.657-5.708-34.293-11.288-43.27z"/><path d="M232.482 71.336c7.36 8.01 15.382 2.019 12.146 2.096s-7.225-1.906-6.695-13.845c.343-7.72-1.955-12.008-5.045-14.441a21.361 21.361 0 0 1-4.045 7.547c.716 5.647-.567 14.065 3.639 18.643zm-.992-32.307c0-10.549-8.551-19.1-19.1-19.1s-19.1 8.551-19.1 19.1c0 10.549 8.551 19.1 19.1 19.1s19.1-8.552 19.1-19.1zm-29.491 5.878h20.782c-2.154 3.488-6 5.825-10.391 5.825-4.392 0-8.238-2.337-10.391-5.825z"/></g></svg>