<?xml version="1.0" encoding="iso-8859-1"?>
<!-- Uploaded to: SVG Repo, www.svgrepo.com, Generator: SVG Repo Mixer Tools -->
<svg fill="#004785" height="4800px" width="800px" version="1.1" id="Layer_1" xmlns="http://www.w3.org/2000/svg" xmlns:xlink="http://www.w3.org/1999/xlink" 
	 viewBox="0 0 512 512" xml:space="preserve">
<g>
	<g>
		<circle cx="256" cy="38.4" r="38.4"/>
	</g>
</g>
<g>
	<g>
		<path d="M256,115.2c-6.628,0-13.061-0.845-19.2-2.429V512h38.4V112.771C269.061,114.355,262.628,115.2,256,115.2z"/>
	</g>
</g>
<g>
	<g>
		<path d="M140.8,38.4H38.4C38.4,102.022,115.2,192,192,192h6.4v-53.815C163.968,118.267,140.8,81.041,140.8,38.4z"/>
	</g>
</g>
<g>
	<g>
		<path d="M371.2,38.4c0,42.641-23.168,79.867-57.6,99.785V192h6.4c76.8,0,153.6-89.978,153.6-153.6H371.2z"/>
	</g>
</g>
<g>
	<g>
		<path d="M115.2,243.2c-21.207,0-38.4,17.193-38.4,38.4S93.993,320,115.2,320h83.2v-76.8H115.2z"/>
	</g>
</g>
<g>
	<g>
		<path d="M396.8,243.2h-83.2V320h83.2c21.207,0,38.4-17.193,38.4-38.4S418.007,243.2,396.8,243.2z"/>
	</g>
</g>
<g>
	<g>
		<path d="M345.6,358.4h-32v76.8h32c21.207,0,38.4-17.193,38.4-38.4S366.807,358.4,345.6,358.4z"/>
	</g>
</g>
<g>
	<g>
		<path d="M166.4,358.4c-21.207,0-38.4,17.193-38.4,38.4s17.193,38.4,38.4,38.4h32v-76.8H166.4z"/>
	</g>
</g>
</svg>