<?xml version="1.0" encoding="utf-8"?>
<!-- Svg Vector Icons : http://www.onlinewebfonts.com/icon -->
<!DOCTYPE svg PUBLIC "-//W3C//DTD SVG 1.1//EN" "http://www.w3.org/Graphics/SVG/1.1/DTD/svg11.dtd">
<svg version="1.1" xmlns="http://www.w3.org/2000/svg" xmlns:xlink="http://www.w3.org/1999/xlink" x="0px" y="0px" viewBox="0 0 1000 1000" enable-background="new 0 0 1000 1000" xml:space="preserve">
<metadata> Svg Vector Icons : http://www.onlinewebfonts.com/icon </metadata>
<g><g transform="translate(0.000000,511.000000) scale(0.100000,-0.100000)"><path d="M7036.1,4981c-214.7-67.5-363.9-310.8-333.3-545.9c16.3-112.5,30.7-145.2,200.4-464.1c216.7-402.8,466.2-1005.9,605.2-1461.9c404.8-1320.8,474.4-2660,206.5-4027.8c-157.4-801.5-447.8-1598.9-836.2-2289.9c-79.7-143.1-153.3-304.6-165.6-361.9c-38.9-179.9,14.3-353.7,149.2-478.4c114.5-110.4,194.2-141.1,363.9-141.1c130.9,0,167.7,8.2,249.5,55.2c137,81.8,192.2,159.5,400.7,564.3C9058.1-1864.2,9246.2,720.1,8410,3145c-235.1,680.8-695.2,1631.6-852.6,1760.4C7430.7,5009.6,7224.2,5038.2,7036.1,4981z"/><path d="M5153,4003.7c-247.4-92-394.6-351.7-339.4-597c12.3-55.2,81.8-206.5,155.4-337.4c488.7-877.1,744.2-1893.3,744.2-2962.6c0-1038.6-245.3-1993.4-768.8-3003.5c-128.8-247.4-139-274-137-394.6c0-149.2,34.8-243.3,128.8-351.7c108.4-120.6,208.5-165.6,388.5-165.6c306.7,0,406.9,106.3,738.1,766.7c515.2,1028.4,762.6,2171.3,725.8,3353.1c-30.7,1071.4-267.8,2026.2-729.9,2950.3c-323,644-417.1,748.3-687,762.6C5281.8,4030.3,5204.1,4022.1,5153,4003.7z"/><path d="M3280.2,3053c-231-75.7-386.4-284.2-388.5-517.3c0-98.1,12.3-141.1,81.8-265.8c443.7-805.5,613.4-1406.7,613.4-2163.1c0-756.5-169.7-1357.6-613.4-2163.1c-63.4-114.5-81.8-171.7-81.8-247.4c0-241.3,157.4-460,374.2-523.4c151.3-42.9,255.6-28.6,398.7,51.1c141.1,81.8,214.7,186.1,419.1,592.9C4447.6-1463.5,4603-844,4623.5-54.8c18.4,729.9-67.5,1263.5-316.9,1950.5c-92,257.6-366,805.6-468.2,940.5C3711.6,3001.9,3441.7,3106.1,3280.2,3053z"/><path d="M1339.9,2077.7c-188.1-94.1-280.1-267.8-261.7-492.8c8.2-100.2,24.5-153.3,71.6-226.9c327.1-498.9,400.7-732,400.7-1251.3c0-519.3-73.6-750.3-402.8-1255.3c-59.3-92-65.4-114.5-65.4-267.9c0-149.2,6.1-175.8,61.3-265.8c90-145.2,220.8-220.8,398.7-231c165.6-10.2,263.7,18.4,361.9,104.3c106.3,94.1,261.7,335.3,406.9,635.9C2529.8-719.2,2583-506.6,2599.3-36.4c12.3,368-20.4,642-118.6,993.7c-94.1,343.5-345.5,821.9-537.7,1028.4C1799.9,2141.1,1544.4,2179.9,1339.9,2077.7z"/></g></g>
</svg>